<svg version="1.1" xmlns="http://www.w3.org/2000/svg" xmlns:xlink="http://www.w3.org/1999/xlink" x="0px" y="0px"
	 viewBox="0 0 170 250" enable-background="new 0 0 170 250" xml:space="preserve">
<path fill="#DA1C5C" d="M77.045,3.326L3.326,77.045C1.196,79.175,0,82.063,0,85.075v154.09c0,6.271,5.084,11.355,11.355,11.355h0
	c6.271,0,11.355-5.084,11.355-11.355V150.62c0-6.271,5.084-11.355,11.355-11.355h29.652c6.271,0,11.355,5.084,11.355,11.355v88.545
	c0,6.271,5.084,11.355,11.355,11.355h72.364c6.271,0,11.355-5.084,11.355-11.355V85.075c0-3.012-1.196-5.9-3.326-8.029L93.104,3.326
	C88.67-1.109,81.48-1.109,77.045,3.326z M136.083,191.627h-29.652c-6.271,0-11.355-5.084-11.355-11.355V150.62
	c0-6.271,5.084-11.355,11.355-11.355h29.652c6.271,0,11.355,5.084,11.355,11.355v29.652
	C147.438,186.543,142.354,191.627,136.083,191.627z"/>
<text transform="matrix(1 0 0 1 68.6709 103.1402)" fill="#181F23" font-family="'Helvetica-Bold'" font-size="58">12</text>
</svg>