<?xml version="1.0" encoding="utf-8"?>
<!DOCTYPE svg PUBLIC "-//W3C//DTD SVG 1.1//EN" "http://www.w3.org/Graphics/SVG/1.1/DTD/svg11.dtd">
<svg version="1.1" xmlns="http://www.w3.org/2000/svg" xmlns:xlink="http://www.w3.org/1999/xlink" x="0px" y="0px"
	 width="1000px" height="398.81px" viewBox="0 0 1000 398.81" enable-background="new 0 0 1000 398.81" xml:space="preserve">
<path fill="#25343A" d="M1000,398.81V51.777c-138.071,69.036-361.929,69.036-500,0s-361.929-69.036-500,0V398.81H1000z"/>
<g>
	<g>
		<path fill="#181F23" d="M995.26,72.766l-1.297-2.705c1.803-0.865,3.592-1.74,5.366-2.627l1.342,2.684
			C998.881,71.011,997.078,71.894,995.26,72.766z"/>
	</g>
	<g>
		<path fill="#181F23" d="M750.062,122.051c-3.983-0.002-8.021-0.039-12.001-0.107l0.052-3c3.963,0.068,7.984,0.104,11.951,0.107
			L750.062,122.051z M762.062,121.956l-0.049-3c3.977-0.065,7.995-0.165,11.945-0.297l0.1,2.998
			C770.092,121.79,766.056,121.89,762.062,121.956z M726.061,121.636c-3.966-0.135-8.001-0.307-11.995-0.51l0.152-2.996
			c3.978,0.202,7.996,0.373,11.944,0.508L726.061,121.636z M786.047,121.154l-0.151-2.996c3.957-0.2,7.969-0.438,11.926-0.706
			l0.203,2.993C794.051,120.715,790.021,120.954,786.047,121.154z M702.078,120.412c-3.984-0.271-8.014-0.581-11.975-0.919
			l0.256-2.989c3.943,0.337,7.955,0.645,11.922,0.915L702.078,120.412z M809.988,119.531l-0.256-2.989
			c3.967-0.338,7.967-0.715,11.891-1.12l0.309,2.984C817.989,118.812,813.972,119.191,809.988,119.531z M678.146,118.365
			c-3.979-0.411-7.995-0.861-11.938-1.339l0.361-2.979c3.925,0.476,7.924,0.925,11.886,1.333L678.146,118.365z M833.853,117.069
			l-0.361-2.979c3.962-0.481,7.945-1.001,11.84-1.545l0.416,2.971C841.835,116.063,837.833,116.586,833.853,117.069z
			 M654.293,115.472c-3.953-0.552-7.952-1.149-11.886-1.773l0.471-2.963c3.915,0.621,7.896,1.215,11.831,1.765L654.293,115.472z
			 M857.609,113.744l-0.471-2.963c3.919-0.623,7.879-1.291,11.771-1.987l0.527,2.953
			C865.527,112.446,861.547,113.118,857.609,113.744z M630.555,111.701c-3.954-0.706-7.929-1.455-11.813-2.228l0.586-2.942
			c3.864,0.769,7.819,1.515,11.755,2.217L630.555,111.701z M881.224,109.521l-0.586-2.942c3.899-0.776,7.83-1.601,11.68-2.45
			l0.646,2.93C889.094,107.912,885.144,108.74,881.224,109.521z M606.99,107.012c-3.925-0.864-7.861-1.774-11.7-2.704l0.707-2.916
			c3.818,0.926,7.733,1.831,11.638,2.69L606.99,107.012z M904.661,104.35l-0.707-2.915c3.865-0.938,7.76-1.928,11.574-2.943
			l0.771,2.899C912.464,102.411,908.548,103.407,904.661,104.35z M583.651,101.352c-3.873-1.029-7.767-2.111-11.571-3.216
			l0.836-2.881c3.783,1.098,7.654,2.174,11.506,3.197L583.651,101.352z M927.87,98.171l-0.838-2.881
			c3.838-1.116,7.683-2.283,11.425-3.469l0.906,2.86C935.598,95.874,931.731,97.048,927.87,98.171z M560.585,94.65
			c-3.82-1.209-7.659-2.477-11.408-3.767l0.977-2.837c3.726,1.283,7.54,2.542,11.336,3.744L560.585,94.65z M950.77,90.911
			l-0.978-2.836c3.778-1.302,7.557-2.66,11.232-4.037l1.053,2.81C958.377,88.234,954.572,89.601,950.77,90.911z M537.87,86.822
			c-3.775-1.413-7.543-2.882-11.195-4.368l1.13-2.779c3.627,1.475,7.367,2.934,11.116,4.337L537.87,86.822z M973.273,82.479
			l-1.131-2.779c3.713-1.509,7.408-3.075,10.985-4.654l1.211,2.744C980.735,79.381,977.013,80.958,973.273,82.479z M515.607,77.765
			c-3.685-1.626-7.358-3.317-10.921-5.026l1.297-2.705c3.535,1.695,7.181,3.373,10.835,4.987L515.607,77.765z M493.931,67.473
			c-3.531-1.693-7.176-3.371-10.835-4.987l1.212-2.744c3.688,1.628,7.362,3.32,10.92,5.026L493.931,67.473z M16.813,62.53
			l-1.212-2.744c3.607-1.592,7.331-3.17,11.068-4.688l1.129,2.779C24.089,59.384,20.393,60.95,16.813,62.53z M472.11,57.829
			c-3.637-1.48-7.377-2.941-11.116-4.342l1.053-2.809c3.765,1.411,7.531,2.882,11.194,4.372L472.11,57.829z M38.917,53.542
			l-1.051-2.811c3.713-1.388,7.518-2.752,11.31-4.057l0.976,2.837C46.384,50.807,42.604,52.163,38.917,53.542z M449.763,49.446
			c-3.706-1.279-7.519-2.542-11.333-3.752l0.907-2.859c3.839,1.218,7.676,2.488,11.404,3.775L449.763,49.446z M61.488,45.772
			l-0.904-2.86c3.773-1.192,7.641-2.363,11.497-3.481l0.835,2.882C69.083,43.423,65.238,44.587,61.488,45.772z M427.006,42.22
			c-3.768-1.097-7.638-2.176-11.503-3.207l0.773-2.898c3.887,1.037,7.779,2.122,11.568,3.225L427.006,42.22z M84.422,39.121
			l-0.769-2.899c3.821-1.014,7.738-2.006,11.641-2.95L96,36.187C92.118,37.126,88.223,38.113,84.422,39.121z M403.93,36.065
			c-3.826-0.93-7.741-1.838-11.636-2.698l0.647-2.93c3.915,0.865,7.851,1.778,11.697,2.713L403.93,36.065z M107.639,33.502
			l-0.644-2.93c3.862-0.848,7.816-1.675,11.752-2.456l0.584,2.942C115.415,31.836,111.481,32.658,107.639,33.502z M380.604,30.912
			c-3.854-0.769-7.798-1.515-11.724-2.217l0.528-2.953c3.945,0.706,7.909,1.456,11.782,2.228L380.604,30.912z M131.084,28.847
			l-0.526-2.953c3.908-0.696,7.895-1.367,11.851-1.994l0.47,2.963C138.941,27.486,134.973,28.154,131.084,28.847z M357.114,26.707
			c-3.894-0.62-7.865-1.213-11.804-1.764l0.415-2.971c3.958,0.553,7.948,1.149,11.86,1.772L357.114,26.707z M154.707,25.1
			l-0.415-2.972c3.924-0.547,7.932-1.07,11.912-1.552l0.361,2.979C162.603,24.035,158.613,24.555,154.707,25.1z M333.473,23.398
			c-3.921-0.475-7.913-0.922-11.866-1.329l0.307-2.984c3.97,0.409,7.98,0.858,11.919,1.334L333.473,23.398z M178.45,22.222
			l-0.309-2.984c3.961-0.409,7.984-0.789,11.957-1.13l0.256,2.989C186.398,21.436,182.394,21.814,178.45,22.222z M309.717,20.955
			c-3.93-0.333-7.937-0.638-11.908-0.905l0.201-2.993c3.989,0.268,8.013,0.574,11.961,0.909L309.717,20.955z M202.275,20.176
			l-0.205-2.993c3.967-0.272,7.999-0.515,11.984-0.721l0.155,2.996C210.241,19.664,206.226,19.905,202.275,20.176z M285.885,19.353
			c-3.954-0.196-7.97-0.361-11.937-0.489l0.098-2.999c3.984,0.129,8.017,0.294,11.988,0.492L285.885,19.353z M226.152,18.941
			l-0.104-2.998c3.977-0.139,8.014-0.247,11.999-0.32l0.056,3C234.133,18.695,230.113,18.803,226.152,18.941z M262.003,18.58
			c-3.497-0.053-7.042-0.08-10.541-0.081l-1.409,0.001l-0.006-3l1.415-0.001c3.513,0,7.075,0.028,10.585,0.081L262.003,18.58z"/>
	</g>
	<g>
		<path fill="#181F23" d="M0.671,70.117l-1.342-2.684c1.789-0.895,3.593-1.778,5.41-2.649l1.298,2.705
			C4.234,68.353,2.445,69.229,0.671,70.117z"/>
	</g>
</g>
</svg>
