<svg version="1.1" xmlns="http://www.w3.org/2000/svg" xmlns:xlink="http://www.w3.org/1999/xlink" x="0px" y="0px"
	 width="696px" height="627px" viewBox="0 0 696 627" enable-background="new 0 0 696 627"
	 xml:space="preserve">
<path fill="#DA1C5C" d="M512.239,218.09c-33.131-57.131-36.027-122.704-33.605-163.558
	c-31.861,36.215-95.538,97.916-182.923,130.546c-84.35,31.497-169.808,28.058-218.633,21.963
	c-15.751,36.54-24.493,76.81-24.493,119.127c0,166.361,134.863,301.224,301.224,301.224c162.891,0,295.561-129.3,301.027-290.859
	C620.992,321.935,551.181,285.243,512.239,218.09z M388.796,282.247c24.257,0,43.92,19.664,43.92,43.92s-19.664,43.92-43.92,43.92
	s-43.92-19.664-43.92-43.92S364.54,282.247,388.796,282.247z M125.446,326.168c0-24.257,19.664-43.92,43.92-43.92
	s43.92,19.664,43.92,43.92s-19.664,43.92-43.92,43.92S125.446,350.425,125.446,326.168z M313.807,535.248
	c-70.274,0-132.449-34.672-170.356-87.841h321.711C427.254,500.576,384.081,535.248,313.807,535.248z"/>
<path fill="#8C0046" d="M313.807,535.248c70.274,0,113.447-34.672,151.355-87.841H143.451
	C181.358,500.576,243.532,535.248,313.807,535.248z"/>
<path fill="#05CE78" d="M0,154.155c0,0,131.528,68.92,266.164,18.646S483.018,9.661,483.018,9.661S346.947-21.697,212.31,28.577
	S0,154.155,0,154.155z"/>
<path fill="#05CE78" d="M501.638,14.847c0,0-25.626,97.475,27.1,188.396s162.058,126.013,162.058,126.013
	s23.846-112.322-28.88-203.243C609.189,35.091,501.638,14.847,501.638,14.847z"/>
<circle fill="#FFFFFF" cx="388.796" cy="326.168" r="43.92"/>
<circle fill="#FFFFFF" cx="169.367" cy="326.168" r="43.92"/>
<circle fill="#8C0046" cx="168.809" cy="319.255" r="22"/>
<circle fill="#8C0046" cx="388.809" cy="319.255" r="22"/>
<path fill="#CC005D" d="M566.832,282.325c2.088,14.313,3.176,28.95,3.176,43.842c0,151.929-112.485,277.564-258.711,298.223
	c13.891,1.963,28.08,3,42.512,3c162.891,0,295.561-129.3,301.027-290.859C633.958,327.527,599.398,310.113,566.832,282.325z"/>
</svg>
