<?xml version="1.0" encoding="utf-8"?>
<!-- Generator: Adobe Illustrator 18.1.0, SVG Export Plug-In . SVG Version: 6.00 Build 0)  -->
<!DOCTYPE svg PUBLIC "-//W3C//DTD SVG 1.1//EN" "http://www.w3.org/Graphics/SVG/1.1/DTD/svg11.dtd">
<svg version="1.1" id="Layer_1" xmlns="http://www.w3.org/2000/svg" xmlns:xlink="http://www.w3.org/1999/xlink" x="0px" y="0px"
	 width="274.692px" height="65.833px" viewBox="0 0 274.692 65.833" enable-background="new 0 0 274.692 65.833"
	 xml:space="preserve">
<g>
	<path fill="#05CE78" d="M32.644,65.833c-4.669,0-9.002-0.85-13.003-2.547c-4.001-1.696-7.456-4.015-10.366-6.955
		c-2.909-2.94-5.183-6.411-6.819-10.412S0,37.644,0,33.098v-0.182c0-4.546,0.818-8.805,2.455-12.775
		c1.637-3.97,3.91-7.457,6.819-10.457c2.91-3,6.396-5.365,10.457-7.092C23.792,0.864,28.278,0,33.188,0
		c2.97,0,5.684,0.243,8.139,0.727c2.455,0.486,4.683,1.152,6.683,2c2.001,0.85,3.85,1.88,5.547,3.092
		c1.696,1.213,3.273,2.546,4.729,4l-8.911,10.275c-2.486-2.242-5.017-4-7.593-5.273c-2.577-1.273-5.471-1.91-8.684-1.91
		c-2.668,0-5.137,0.516-7.41,1.546c-2.273,1.031-4.229,2.455-5.865,4.273c-1.637,1.819-2.909,3.926-3.818,6.319
		c-0.91,2.396-1.364,4.956-1.364,7.684v0.182c0,2.728,0.454,5.305,1.364,7.729c0.909,2.425,2.166,4.546,3.773,6.365
		c1.605,1.818,3.546,3.259,5.819,4.318c2.272,1.062,4.773,1.592,7.501,1.592c3.638,0,6.714-0.666,9.229-2.001
		c2.515-1.332,5.016-3.15,7.502-5.455l8.911,9.002c-1.637,1.759-3.335,3.334-5.093,4.729c-1.759,1.395-3.683,2.591-5.773,3.591
		c-2.092,1.001-4.38,1.759-6.865,2.273C38.522,65.574,35.735,65.833,32.644,65.833z"/>
	<path fill="#05CE78" d="M100.839,65.833c-4.91,0-9.427-0.864-13.548-2.592c-4.123-1.728-7.684-4.061-10.685-7.002
		c-3-2.939-5.335-6.395-7.001-10.365c-1.668-3.97-2.501-8.229-2.501-12.776v-0.182c0-4.546,0.849-8.805,2.546-12.775
		c1.696-3.97,4.047-7.457,7.047-10.457c3.001-3,6.577-5.365,10.729-7.092C91.578,0.864,96.11,0,101.021,0s9.426,0.864,13.549,2.591
		c4.121,1.728,7.684,4.062,10.684,7.001c3.001,2.941,5.334,6.396,7.002,10.366c1.666,3.971,2.5,8.229,2.5,12.775v0.182
		c0,4.546-0.85,8.806-2.546,12.776c-1.697,3.971-4.046,7.456-7.047,10.456c-3,3.001-6.578,5.365-10.729,7.093
		C110.28,64.968,105.749,65.833,100.839,65.833z M101.021,52.92c2.788,0,5.365-0.515,7.729-1.546
		c2.364-1.03,4.379-2.455,6.047-4.273c1.666-1.818,2.969-3.925,3.909-6.319c0.939-2.395,1.41-4.956,1.41-7.684v-0.182
		c0-2.728-0.471-5.304-1.41-7.729c-0.94-2.424-2.272-4.546-4.001-6.365c-1.728-1.818-3.773-3.258-6.137-4.319
		c-2.364-1.06-4.941-1.591-7.729-1.591c-2.85,0-5.441,0.516-7.774,1.546c-2.334,1.031-4.335,2.455-6.001,4.273
		c-1.668,1.819-2.971,3.926-3.91,6.319c-0.94,2.396-1.409,4.956-1.409,7.684v0.182c0,2.728,0.469,5.305,1.409,7.729
		c0.939,2.425,2.273,4.546,4.001,6.365c1.728,1.818,3.758,3.259,6.092,4.318C95.579,52.39,98.171,52.92,101.021,52.92z"/>
	<path fill="#05CE78" d="M147.212,1.091h24.823c4.97,0,9.531,0.804,13.685,2.41c4.151,1.607,7.729,3.834,10.729,6.683
		c3.001,2.85,5.319,6.199,6.956,10.048c1.637,3.85,2.455,8.017,2.455,12.502v0.182c0,4.487-0.818,8.669-2.455,12.548
		c-1.637,3.88-3.955,7.244-6.956,10.093c-3.001,2.851-6.578,5.092-10.729,6.729c-4.153,1.637-8.715,2.455-13.685,2.455h-24.823
		V1.091z M172.035,52.102c2.849,0,5.455-0.455,7.819-1.364s4.379-2.212,6.047-3.91c1.667-1.696,2.97-3.696,3.91-6.001
		c0.938-2.303,1.409-4.879,1.409-7.729v-0.182c0-2.788-0.471-5.365-1.409-7.729c-0.94-2.364-2.243-4.395-3.91-6.092
		c-1.668-1.696-3.683-3.015-6.047-3.956c-2.364-0.939-4.971-1.409-7.819-1.409h-10.82v38.372H172.035z"/>
	<path fill="#05CE78" d="M236.229,39.645L211.771,1.091h16.366l15.186,25.551L258.78,1.091h15.912l-24.46,38.281v25.369h-14.003
		V39.645z"/>
</g>
<g>
	<path fill="#DA1C5C" d="M9.274,56.331c2.157,2.18,4.616,4.016,7.373,5.512l39.923-9.568l-6.742-6.81
		c-2.486,2.305-4.987,4.123-7.502,5.455c-2.516,1.335-5.592,2.001-9.229,2.001c-2.728,0-5.229-0.53-7.501-1.592
		c-2.273-1.06-4.214-2.5-5.819-4.318c-1.607-1.819-2.864-3.94-3.773-6.365c-0.91-2.424-1.364-5.001-1.364-7.729v-0.182
		c0-2.728,0.454-5.288,1.364-7.684c0.909-2.394,2.182-4.5,3.818-6.319c1.637-1.818,3.592-3.242,5.865-4.273
		c2.273-1.03,4.742-1.546,7.41-1.546c3.213,0,6.106,0.636,8.684,1.91c2.576,1.273,5.106,3.032,7.593,5.273L58.285,9.82
		c-1.455-1.455-3.032-2.787-4.729-4c-1.697-1.212-3.546-2.242-5.547-3.092c-2-0.848-4.228-1.515-6.683-2
		C38.872,0.243,36.158,0,33.188,0c-4.91,0-9.396,0.864-13.457,2.591C15.67,4.319,12.185,6.683,9.274,9.684
		c-2.909,3-5.183,6.487-6.819,10.457C0.818,24.111,0,28.37,0,32.916v0.182c0,4.546,0.818,8.82,2.455,12.821
		S6.365,53.39,9.274,56.331z"/>
	<path fill="#DA1C5C" d="M71.014,48.813l14.708-3.525c-1.046-1.402-1.91-2.944-2.569-4.643c-0.94-2.424-1.409-5.001-1.409-7.729
		v-0.182c0-2.728,0.469-5.288,1.409-7.684c0.939-2.394,2.242-4.5,3.91-6.319c1.666-1.818,3.667-3.242,6.001-4.273
		c2.333-1.03,4.925-1.546,7.774-1.546c2.788,0,5.365,0.531,7.729,1.591c2.363,1.061,4.409,2.5,6.137,4.319
		c1.729,1.819,3.061,3.941,4.001,6.365c0.939,2.425,1.41,5.001,1.41,7.729v0.182c0,1.389-0.125,2.734-0.369,4.036l14.993-3.593
		c0.004-0.209,0.015-0.415,0.015-0.625v-0.182c0-4.546-0.834-8.804-2.5-12.775c-1.668-3.97-4.001-7.425-7.002-10.366
		c-3-2.939-6.562-5.274-10.684-7.001C110.446,0.864,105.931,0,101.021,0s-9.442,0.864-13.594,2.591
		c-4.152,1.728-7.729,4.092-10.729,7.092c-3,3-5.351,6.487-7.047,10.457c-1.697,3.971-2.546,8.229-2.546,12.775v0.182
		c0,4.546,0.833,8.806,2.501,12.776C70.031,46.887,70.501,47.867,71.014,48.813z"/>
	<path fill="#DA1C5C" d="M161.215,27.196V13.73h10.82c2.849,0,5.455,0.47,7.819,1.409c2.364,0.941,4.379,2.259,6.047,3.956
		c0.555,0.565,1.054,1.18,1.528,1.819l14.606-3.5c-1.481-2.689-3.342-5.099-5.586-7.229c-3.001-2.849-6.578-5.076-10.729-6.683
		c-4.153-1.605-8.715-2.41-13.685-2.41h-24.823v29.461L161.215,27.196z"/>
	<g>
		<polygon fill="#DA1C5C" points="270.141,1.091 258.78,1.091 256.854,4.275 		"/>
		<polygon fill="#DA1C5C" points="233.374,9.902 228.137,1.091 211.771,1.091 219.474,13.234 		"/>
	</g>
</g>
</svg>
